<mxfile host="app.diagrams.net" agent="Mozilla/5.0 (Windows NT 10.0; Win64; x64) AppleWebKit/537.36 (KHTML, like Gecko) Chrome/134.0.0.0 Safari/537.36" version="26.2.8">
  <diagram id="R2lEEEUBdFMjLlhIrx00" name="Page-1">
    <mxGraphModel dx="3347" dy="2446" grid="1" gridSize="10" guides="1" tooltips="1" connect="1" arrows="1" fold="1" page="1" pageScale="1" pageWidth="850" pageHeight="1100" math="0" shadow="0" extFonts="Permanent Marker^https://fonts.googleapis.com/css?family=Permanent+Marker">
      <root>
        <mxCell id="0" />
        <mxCell id="1" parent="0" />
        <mxCell id="dBUMB5nFV6SDd58Kc6gE-9" value="Producto" style="swimlane;childLayout=stackLayout;horizontal=1;startSize=50;horizontalStack=0;rounded=1;fontSize=14;fontStyle=0;strokeWidth=2;resizeParent=0;resizeLast=1;shadow=0;dashed=0;align=center;arcSize=4;whiteSpace=wrap;html=1;" vertex="1" parent="1">
          <mxGeometry x="860" y="195" width="260" height="310" as="geometry" />
        </mxCell>
        <mxCell id="dBUMB5nFV6SDd58Kc6gE-10" value="&lt;div&gt;id_producto (PK)&lt;/div&gt;&lt;div&gt;&lt;br&gt;&lt;/div&gt;&lt;div&gt;nombre&lt;/div&gt;&lt;div&gt;&lt;br&gt;&lt;/div&gt;&lt;div&gt;descripción&lt;/div&gt;&lt;div&gt;&lt;br&gt;&lt;/div&gt;&lt;div&gt;precio&lt;/div&gt;&lt;div&gt;&lt;br&gt;&lt;/div&gt;&lt;div&gt;categoría&lt;/div&gt;&lt;div&gt;&lt;br&gt;&lt;/div&gt;&lt;div&gt;stock&lt;/div&gt;&lt;div&gt;&lt;br&gt;&lt;/div&gt;&lt;div&gt;imagen_url&lt;/div&gt;" style="align=left;strokeColor=none;fillColor=none;spacingLeft=4;spacingRight=4;fontSize=12;verticalAlign=top;resizable=0;rotatable=0;part=1;html=1;whiteSpace=wrap;" vertex="1" parent="dBUMB5nFV6SDd58Kc6gE-9">
          <mxGeometry y="50" width="260" height="260" as="geometry" />
        </mxCell>
        <mxCell id="dBUMB5nFV6SDd58Kc6gE-15" value="Cliente" style="swimlane;childLayout=stackLayout;horizontal=1;startSize=50;horizontalStack=0;rounded=1;fontSize=14;fontStyle=0;strokeWidth=2;resizeParent=0;resizeLast=1;shadow=0;dashed=0;align=center;arcSize=4;whiteSpace=wrap;html=1;" vertex="1" parent="1">
          <mxGeometry x="-140" y="195" width="370" height="280" as="geometry" />
        </mxCell>
        <mxCell id="dBUMB5nFV6SDd58Kc6gE-16" value="&lt;div&gt;id_cliente (PK)&lt;/div&gt;&lt;div&gt;&lt;br&gt;&lt;/div&gt;&lt;div&gt;nombre&lt;/div&gt;&lt;div&gt;&lt;br&gt;&lt;/div&gt;&lt;div&gt;apellido&lt;/div&gt;&lt;div&gt;&lt;br&gt;&lt;/div&gt;&lt;div&gt;dirección&lt;/div&gt;&lt;div&gt;&lt;br&gt;&lt;/div&gt;&lt;div&gt;teléfono&lt;/div&gt;&lt;div&gt;&lt;br&gt;&lt;/div&gt;&lt;div&gt;correo_electrónico&lt;/div&gt;&lt;div&gt;&lt;br&gt;&lt;/div&gt;&lt;div&gt;contraseña&lt;/div&gt;&lt;div&gt;&lt;br&gt;&lt;/div&gt;" style="align=left;strokeColor=none;fillColor=none;spacingLeft=4;spacingRight=4;fontSize=12;verticalAlign=top;resizable=0;rotatable=0;part=1;html=1;whiteSpace=wrap;" vertex="1" parent="dBUMB5nFV6SDd58Kc6gE-15">
          <mxGeometry y="50" width="370" height="230" as="geometry" />
        </mxCell>
        <mxCell id="dBUMB5nFV6SDd58Kc6gE-17" value="Pedido" style="swimlane;childLayout=stackLayout;horizontal=1;startSize=50;horizontalStack=0;rounded=1;fontSize=14;fontStyle=0;strokeWidth=2;resizeParent=0;resizeLast=1;shadow=0;dashed=0;align=center;arcSize=4;whiteSpace=wrap;html=1;" vertex="1" parent="1">
          <mxGeometry x="450" y="195" width="280" height="280" as="geometry" />
        </mxCell>
        <mxCell id="dBUMB5nFV6SDd58Kc6gE-18" value="&lt;div&gt;&lt;div&gt;id_pedido (PK)&lt;/div&gt;&lt;div&gt;&lt;br&gt;&lt;/div&gt;&lt;div&gt;id_cliente (FK)&lt;/div&gt;&lt;div&gt;&lt;br&gt;&lt;/div&gt;&lt;div&gt;fecha_pedido&lt;/div&gt;&lt;div&gt;&lt;br&gt;&lt;/div&gt;&lt;div&gt;estado&lt;/div&gt;&lt;div&gt;&lt;br&gt;&lt;/div&gt;&lt;div&gt;método_pago&lt;/div&gt;&lt;div&gt;&lt;br&gt;&lt;/div&gt;&lt;div&gt;total&lt;/div&gt;&lt;div&gt;&lt;br&gt;&lt;/div&gt;&lt;div&gt;impuestos&lt;/div&gt;&lt;div&gt;&lt;br&gt;&lt;/div&gt;&lt;div&gt;gastos_envío&lt;/div&gt;&lt;/div&gt;" style="align=left;strokeColor=none;fillColor=none;spacingLeft=4;spacingRight=4;fontSize=12;verticalAlign=top;resizable=0;rotatable=0;part=1;html=1;whiteSpace=wrap;" vertex="1" parent="dBUMB5nFV6SDd58Kc6gE-17">
          <mxGeometry y="50" width="280" height="230" as="geometry" />
        </mxCell>
        <mxCell id="dBUMB5nFV6SDd58Kc6gE-34" value="Detalle del Pedido" style="swimlane;childLayout=stackLayout;horizontal=1;startSize=50;horizontalStack=0;rounded=1;fontSize=14;fontStyle=0;strokeWidth=2;resizeParent=0;resizeLast=1;shadow=0;dashed=0;align=center;arcSize=4;whiteSpace=wrap;html=1;" vertex="1" parent="1">
          <mxGeometry x="410" y="586" width="360" height="254" as="geometry" />
        </mxCell>
        <mxCell id="dBUMB5nFV6SDd58Kc6gE-35" value="&lt;div&gt;id_detalle (PK)&lt;/div&gt;&lt;div&gt;&lt;br&gt;&lt;/div&gt;&lt;div&gt;id_pedido (FK)&lt;/div&gt;&lt;div&gt;&lt;br&gt;&lt;/div&gt;&lt;div&gt;id_producto (FK)&lt;/div&gt;&lt;div&gt;&lt;br&gt;&lt;/div&gt;&lt;div&gt;cantidad&lt;/div&gt;&lt;div&gt;&lt;br&gt;&lt;/div&gt;&lt;div&gt;precio_unitario&lt;/div&gt;&lt;div&gt;&lt;br&gt;&lt;/div&gt;&lt;div&gt;subtotal&lt;/div&gt;" style="align=left;strokeColor=none;fillColor=none;spacingLeft=4;spacingRight=4;fontSize=12;verticalAlign=top;resizable=0;rotatable=0;part=1;html=1;whiteSpace=wrap;" vertex="1" parent="dBUMB5nFV6SDd58Kc6gE-34">
          <mxGeometry y="50" width="360" height="204" as="geometry" />
        </mxCell>
        <mxCell id="dBUMB5nFV6SDd58Kc6gE-37" value="Factura" style="swimlane;childLayout=stackLayout;horizontal=1;startSize=50;horizontalStack=0;rounded=1;fontSize=14;fontStyle=0;strokeWidth=2;resizeParent=0;resizeLast=1;shadow=0;dashed=0;align=center;arcSize=4;whiteSpace=wrap;html=1;" vertex="1" parent="1">
          <mxGeometry x="-130" y="520" width="380" height="260" as="geometry" />
        </mxCell>
        <mxCell id="dBUMB5nFV6SDd58Kc6gE-38" value="&lt;br&gt;&lt;div&gt;id_factura (PK)&lt;/div&gt;&lt;div&gt;&lt;br&gt;&lt;/div&gt;&lt;div&gt;id_pedido (FK)&lt;/div&gt;&lt;div&gt;&lt;br&gt;&lt;/div&gt;&lt;div&gt;fecha_emisión&lt;/div&gt;&lt;div&gt;&lt;br&gt;&lt;/div&gt;&lt;div&gt;total&lt;/div&gt;&lt;div&gt;&lt;br&gt;&lt;/div&gt;&lt;div&gt;impuestos&lt;/div&gt;&lt;div&gt;&lt;br&gt;&lt;/div&gt;&lt;div&gt;gastos_envío&lt;/div&gt;&lt;div&gt;&lt;br&gt;&lt;/div&gt;" style="align=left;strokeColor=none;fillColor=none;spacingLeft=4;spacingRight=4;fontSize=12;verticalAlign=top;resizable=0;rotatable=0;part=1;html=1;whiteSpace=wrap;" vertex="1" parent="dBUMB5nFV6SDd58Kc6gE-37">
          <mxGeometry y="50" width="380" height="210" as="geometry" />
        </mxCell>
        <mxCell id="dBUMB5nFV6SDd58Kc6gE-39" value="Envio" style="swimlane;childLayout=stackLayout;horizontal=1;startSize=50;horizontalStack=0;rounded=1;fontSize=14;fontStyle=0;strokeWidth=2;resizeParent=0;resizeLast=1;shadow=0;dashed=0;align=center;arcSize=4;whiteSpace=wrap;html=1;" vertex="1" parent="1">
          <mxGeometry x="460" y="-200" width="260" height="280" as="geometry" />
        </mxCell>
        <mxCell id="dBUMB5nFV6SDd58Kc6gE-40" value="&lt;div&gt;id_envío (PK)&lt;/div&gt;&lt;div&gt;&lt;br&gt;&lt;/div&gt;&lt;div&gt;id_pedido (FK)&lt;/div&gt;&lt;div&gt;&lt;br&gt;&lt;/div&gt;&lt;div&gt;fecha_envío&lt;/div&gt;&lt;div&gt;&lt;br&gt;&lt;/div&gt;&lt;div&gt;dirección_envío&lt;/div&gt;&lt;div&gt;&lt;br&gt;&lt;/div&gt;&lt;div&gt;estado_envío&lt;/div&gt;&lt;div&gt;&lt;br&gt;&lt;/div&gt;&lt;div&gt;empresa_transporte&lt;/div&gt;&lt;div&gt;&lt;br&gt;&lt;/div&gt;&lt;div&gt;número_guía&lt;/div&gt;&lt;div&gt;&lt;br&gt;&lt;/div&gt;" style="align=left;strokeColor=none;fillColor=none;spacingLeft=4;spacingRight=4;fontSize=12;verticalAlign=top;resizable=0;rotatable=0;part=1;html=1;whiteSpace=wrap;" vertex="1" parent="dBUMB5nFV6SDd58Kc6gE-39">
          <mxGeometry y="50" width="260" height="230" as="geometry" />
        </mxCell>
        <mxCell id="dBUMB5nFV6SDd58Kc6gE-41" value="" style="edgeStyle=entityRelationEdgeStyle;fontSize=12;html=1;endArrow=ERoneToMany;rounded=0;exitX=1;exitY=0.479;exitDx=0;exitDy=0;exitPerimeter=0;" edge="1" parent="1" source="dBUMB5nFV6SDd58Kc6gE-16">
          <mxGeometry width="100" height="100" relative="1" as="geometry">
            <mxPoint x="230" y="360" as="sourcePoint" />
            <mxPoint x="450" y="354" as="targetPoint" />
            <Array as="points">
              <mxPoint x="400" y="370" />
              <mxPoint x="340" y="380" />
            </Array>
          </mxGeometry>
        </mxCell>
        <mxCell id="dBUMB5nFV6SDd58Kc6gE-43" value="" style="edgeStyle=entityRelationEdgeStyle;fontSize=12;html=1;endArrow=ERoneToMany;rounded=0;entryX=0;entryY=0.25;entryDx=0;entryDy=0;" edge="1" parent="1">
          <mxGeometry width="100" height="100" relative="1" as="geometry">
            <mxPoint x="730" y="460" as="sourcePoint" />
            <mxPoint x="410" y="661.8999999999997" as="targetPoint" />
            <Array as="points">
              <mxPoint x="400" y="534.9" />
              <mxPoint x="410" y="534.9" />
            </Array>
          </mxGeometry>
        </mxCell>
        <mxCell id="dBUMB5nFV6SDd58Kc6gE-45" value="" style="edgeStyle=entityRelationEdgeStyle;fontSize=12;html=1;endArrow=ERmandOne;startArrow=ERmandOne;rounded=0;entryX=0;entryY=0.75;entryDx=0;entryDy=0;exitX=1;exitY=0.25;exitDx=0;exitDy=0;" edge="1" parent="1" source="dBUMB5nFV6SDd58Kc6gE-38" target="dBUMB5nFV6SDd58Kc6gE-18">
          <mxGeometry width="100" height="100" relative="1" as="geometry">
            <mxPoint x="240" y="605" as="sourcePoint" />
            <mxPoint x="410" y="475" as="targetPoint" />
          </mxGeometry>
        </mxCell>
        <mxCell id="dBUMB5nFV6SDd58Kc6gE-46" value="" style="edgeStyle=entityRelationEdgeStyle;fontSize=12;html=1;endArrow=ERmandOne;startArrow=ERmandOne;rounded=0;exitX=1.009;exitY=0.091;exitDx=0;exitDy=0;exitPerimeter=0;" edge="1" parent="1" source="dBUMB5nFV6SDd58Kc6gE-17">
          <mxGeometry width="100" height="100" relative="1" as="geometry">
            <mxPoint x="430" y="195" as="sourcePoint" />
            <mxPoint x="460" y="20" as="targetPoint" />
          </mxGeometry>
        </mxCell>
        <mxCell id="dBUMB5nFV6SDd58Kc6gE-47" value="" style="edgeStyle=entityRelationEdgeStyle;fontSize=12;html=1;endArrow=ERoneToMany;rounded=0;" edge="1" parent="1" source="dBUMB5nFV6SDd58Kc6gE-10" target="dBUMB5nFV6SDd58Kc6gE-35">
          <mxGeometry width="100" height="100" relative="1" as="geometry">
            <mxPoint x="1061.1799999999996" y="550" as="sourcePoint" />
            <mxPoint x="799.9999999999999" y="803.788" as="targetPoint" />
            <Array as="points">
              <mxPoint x="1430.36" y="1053.96" />
              <mxPoint x="960.36" y="763.96" />
            </Array>
          </mxGeometry>
        </mxCell>
      </root>
    </mxGraphModel>
  </diagram>
</mxfile>
